inDegrees=no
num_controls=7
num_derivatives=13
num_iterations=109
num_multipliers=7
num_parameters=0
num_slacks=7
num_states=26
objective=0.431246
objective_accelerations=0.050234
objective_balance=0.006795
objective_effort=0.031220
objective_height=0.341831
objective_ligament=0.001166
solver_duration=1391.603008
status=Solve_Succeeded
success=true
DataType=double
version=3
OpenSimVersion=4.5
endheader
time	/jointset/ground_pelvis/pelvis_tilt/value	/jointset/ground_pelvis/pelvis_tx/value	/jointset/ground_pelvis/pelvis_ty/value	/jointset/hip_l/hip_flexion_l/value	/jointset/hip_l/hip_adduction_l/value	/jointset/hip_l/hip_rotation_l/value	/jointset/back/lumbar_extension/value	/jointset/patellofemoral_l/patellar_flexion_l/value	/jointset/knee_l/knee_flexion_l/value	/jointset/knee_l/knee_adduction_l/value	/jointset/knee_l/knee_rotation_l/value	/jointset/ankle_l/ankle_angle_l/value	/jointset/subtalar_l/subtalar_angle_l/value	/jointset/ground_pelvis/pelvis_tilt/speed	/jointset/ground_pelvis/pelvis_tx/speed	/jointset/ground_pelvis/pelvis_ty/speed	/jointset/hip_l/hip_flexion_l/speed	/jointset/hip_l/hip_adduction_l/speed	/jointset/hip_l/hip_rotation_l/speed	/jointset/back/lumbar_extension/speed	/jointset/patellofemoral_l/patellar_flexion_l/speed	/jointset/knee_l/knee_flexion_l/speed	/jointset/knee_l/knee_adduction_l/speed	/jointset/knee_l/knee_rotation_l/speed	/jointset/ankle_l/ankle_angle_l/speed	/jointset/subtalar_l/subtalar_angle_l/speed	/forceset/tau_hip_flexion_l	/forceset/tau_hip_adduction_l	/forceset/tau_hip_rotation_l	/forceset/tau_knee_flexion_l	/forceset/tau_ankle_angle_l	/forceset/tau_subtalar_angle_l	/forceset/tau_lumbar_extension	lambda_cid13_p0	lambda_cid13_p1	lambda_cid13_p2	lambda_cid13_p3	lambda_cid13_p4	lambda_cid13_p5	lambda_cid14_p0	/jointset/ground_pelvis/pelvis_tilt/accel	/jointset/ground_pelvis/pelvis_tx/accel	/jointset/ground_pelvis/pelvis_ty/accel	/jointset/hip_l/hip_flexion_l/accel	/jointset/hip_l/hip_adduction_l/accel	/jointset/hip_l/hip_rotation_l/accel	/jointset/back/lumbar_extension/accel	/jointset/patellofemoral_l/patellar_flexion_l/accel	/jointset/knee_l/knee_flexion_l/accel	/jointset/knee_l/knee_adduction_l/accel	/jointset/knee_l/knee_rotation_l/accel	/jointset/ankle_l/ankle_angle_l/accel	/jointset/subtalar_l/subtalar_angle_l/accel	gamma_cid13_p0	gamma_cid13_p1	gamma_cid13_p2	gamma_cid13_p3	gamma_cid13_p4	gamma_cid13_p5	gamma_cid14_p0
0	-0.1566798828093995	0.05727669365452642	0.8978832650387214	0.3774924667018715	-0.2607872258226584	-0.2445014434481965	-0.01265067647494873	0.03223648243721453	0.03223648243721463	-0.1745328835072357	0.1473641021629091	-0.04231377076293093	-0.01124401178796675	0	0	0	0	0	0	0	0	0	0	0	0	0	0.1597732741098603	-0.08512318913525663	-0.05302180611225728	-0.3504021225980163	0.4000513551109453	-0.05420754719271244	-0.09497618653886546	86.7458305439107	4.233632731434716	3.628813382163277	-39.5699189799973	-591.1626661027116	-69.24684181172482	-38.25173682145204	-2.943960869742555	-1.220095500427989	-0.9592947791908542	10.84467467349592	-1.348296162492737	3.424626994555791	-5.491120840111866	10.7775343187719	10.77753431877146	0.03262552421970928	0.3523595247988366	3.118371118600462	-0.6532454360720823	-7.061263548589535e-08	3.588571904493287e-08	1.554644123154263e-07	4.04756053085794e-08	-3.769298987995469e-08	-1.489859245538072e-07	-2.456696568620802e-08
0.01	-0.1568196374997405	0.05721394003637162	0.8978363164104368	0.3780219365899732	-0.260854127144313	-0.2443311033809083	-0.01292654462637991	0.03276304559782749	0.03276304559782776	-0.1745329251994329	0.1473783732936325	-0.04216533078049482	-0.01127788722587101	-0.02765474668369379	-0.01275803178401684	-0.009371716635855634	0.1055648128413938	-0.01329419291977828	0.03389185977083822	-0.05485034059060137	0.1048207866119964	0.1048207866119931	1.789494415349073e-05	0.00284320983825132	0.02920986367677817	-0.006802280564662695	0.1430132877704972	-0.09423817850065996	-0.0483991730369186	-0.3205358764463	0.3499027582062606	-0.02920892902452044	-0.08353002598999136	71.46583223333229	-3.803336869588818	4.745054260219671	-27.65091327047303	-591.3272473869895	-83.74987614516148	-38.26714202467883	-2.631809854928131	-1.334745145224131	-0.9234162912124911	10.36300168600418	-1.307106267373892	3.345021447495225	-5.433497214201098	10.2605789192045	10.26057891920434	-0.009494835370287303	0.2486298002690407	2.750567354417412	-0.6978210590731331	-8.282152725674854e-08	7.924305478059207e-08	1.75369923433513e-07	4.693243529577802e-08	-1.336798461672278e-07	-8.923388088176432e-08	-2.87817754634173e-08
0.02	-0.1572270553143667	0.05701738847480954	0.8976961893787078	0.3795971780257983	-0.2610513954772964	-0.2438271335200831	-0.01374121749285038	0.03432306224191937	0.03432306224191933	-0.174531972350664	0.1474207421401247	-0.04173913748885078	-0.01138060580790384	-0.0535326248572041	-0.02675958868145654	-0.01863568068889539	0.2091543095445089	-0.02607340226569807	0.06672595870757222	-0.1077609430078765	0.2066906966956326	0.2066906966956308	0.0002011372929694174	0.00561954315373315	0.05555066184159339	-0.01376862882571588	0.1262533014311402	-0.10335316786606	-0.04377653996158086	-0.2906696302945775	0.2997541613015792	-0.004210310856324441	-0.07208386544111568	56.27234175789544	-11.85879428339454	5.868064711215711	-15.95791378452755	-590.2175375132028	-98.14271930548973	-38.31289937349818	-2.588587167705861	-1.468800523112559	-0.9377442626276747	10.4496114458402	-1.245299447721001	3.213074827734951	-5.103173205446629	10.18735901309987	10.18735901310036	0.06569500515226609	0.3389842202449342	2.544558016207881	-0.6860589753501425	-9.503041902760173e-08	1.226003905162513e-07	1.952754345515998e-07	5.338926528297664e-08	-2.29666702454501e-07	-2.948183720972143e-08	-3.299658524062659e-08
0.03	-0.1578861754637578	0.05667799998481137	0.897463934119996	0.3821966598085729	-0.2613736228562613	-0.2429997833541427	-0.01507406098271334	0.03688776431830409	0.0368877643183036	-0.1745281077130531	0.1474906463714057	-0.04105914435043593	-0.01155250571175846	-0.07814489221106234	-0.04098405495644315	-0.02779457210563895	0.3101777893157291	-0.03827244233739082	0.09860071710315782	-0.1583927196935932	0.3057994757639204	0.3057994757639186	0.0005967755985342635	0.008350782630213612	0.08043028752571571	-0.02052270493467291	0.121652853184237	-0.09690782602604571	-0.04329287457246889	-0.2877102282156461	0.2981324976753592	-0.008383589594706801	-0.06802307178979232	55.60144794282376	-10.08167091337229	5.75927534544456	-16.39037156288578	-590.5891234947788	-93.84112453135154	-38.38751779913515	-2.375578501211523	-1.379150821471943	-0.9018880601989502	9.8440639148958	-1.192292761034664	3.153145199684224	-4.980924609476864	9.705107547436263	9.705107547435972	0.03028621683185263	0.2385900132096589	2.457007212931789	-0.6568256791036866	-1.218032581073461e-07	1.357441634900955e-07	2.25099774717639e-07	8.095231917244602e-08	-3.594492548074136e-07	-3.022643690289643e-08	-3.826797290068372e-08
